# xmcd CD database file
#
# Track frame offsets:
#	150
#	16693
#	26900
#	49923
#	69825
#	78533
#	89695
#	105583
#	120418
#
# Disc length: 1863 seconds
#
# Revision: 0
# Processed by: cddbd v1.5.2PL0 Copyright (c) Steve Scherf et al.
# Submitted via: CDex 1.70beta3
#
DISCID=6a074509
DTITLE=Bud  Powell - Bud Powell '57
DYEAR=1957
DGENRE=Jazz
TTITLE0=Deep Night
TTITLE1=That Old Black Magic
TTITLE2='Round About Midnight
TTITLE3=Thou Swell
TTITLE4=Kike Someone In Love
TTITLE5=Someone To Watch Me
TTITLE6=Lover Come Back To Me
TTITLE7=Tenderly
TTITLE8=How High The Moon
EXTD=YEAR: 1957
EXTT0=
EXTT1=
EXTT2=
EXTT3=
EXTT4=
EXTT5=
EXTT6=
EXTT7=
EXTT8=
PLAYORDER=
